<svg width="20" height="20" viewBox="0 0 20 20" fill="none" xmlns="http://www.w3.org/2000/svg">
<path d="M10.8489 0.751374C10.3803 0.282745 9.62049 0.282745 9.15186 0.751374L0.751862 9.15137C0.283233 9.62 0.283233 10.3798 0.751862 10.8484C1.22049 11.3171 1.98029 11.3171 2.44892 10.8484L2.80039 10.497V18.3999C2.80039 19.0626 3.33765 19.5999 4.00039 19.5999H6.40039C7.06313 19.5999 7.60039 19.0626 7.60039 18.3999V15.9999C7.60039 15.3372 8.13765 14.7999 8.80039 14.7999H11.2004C11.8631 14.7999 12.4004 15.3372 12.4004 15.9999V18.3999C12.4004 19.0626 12.9376 19.5999 13.6004 19.5999H16.0004C16.6631 19.5999 17.2004 19.0626 17.2004 18.3999V10.497L17.5519 10.8484C18.0205 11.3171 18.7803 11.3171 19.2489 10.8484C19.7175 10.3798 19.7175 9.62 19.2489 9.15137L10.8489 0.751374Z" fill="#581959"/>
</svg>
