<svg width="245" height="43" viewBox="0 0 245 43" fill="none" xmlns="http://www.w3.org/2000/svg">
<g clip-path="url(#clip0_1597_64881)">
<path d="M21.7303 41.9528C33.2937 41.9528 42.6676 32.5788 42.6676 21.0155C42.6676 9.45209 33.2937 0.078125 21.7303 0.078125C10.1669 0.078125 0.792969 9.45209 0.792969 21.0155C0.792969 32.5788 10.1669 41.9528 21.7303 41.9528Z" fill="white"/>
<path d="M16.6771 22.2969C16.6664 23.4267 16.9293 24.5424 17.4434 25.5486C17.9575 26.5547 18.7075 27.4215 19.6294 28.0749L23.2282 28.1643C23.908 28.179 24.5667 27.9277 25.0639 27.4639C25.5611 27 25.8576 26.3604 25.89 25.6812C25.906 25.3491 25.8553 25.0172 25.741 24.7051C25.6266 24.393 25.4509 24.1069 25.2241 23.8638C24.9974 23.6207 24.7243 23.4254 24.4209 23.2896C24.1175 23.1538 23.7899 23.0801 23.4576 23.0729L16.7247 22.9076L16.6771 22.2969Z" fill="white"/>
<path style="mix-blend-mode:multiply" d="M16.6771 22.2969C16.6664 23.4267 16.9293 24.5424 17.4434 25.5486C17.9575 26.5547 18.7075 27.4215 19.6294 28.0749L23.2282 28.1643C23.908 28.179 24.5667 27.9277 25.0639 27.4639C25.5611 27 25.8576 26.3604 25.89 25.6812C25.906 25.3491 25.8553 25.0172 25.741 24.7051C25.6266 24.393 25.4509 24.1069 25.2241 23.8638C24.9974 23.6207 24.7243 23.4254 24.4209 23.2896C24.1175 23.1538 23.7899 23.0801 23.4576 23.0729L16.7247 22.9076L16.6771 22.2969Z" fill="url(#paint0_linear_1597_64881)"/>
<path d="M10.5841 11.283L11.6938 23.9681C11.7872 25.0455 12.2752 26.0505 13.0642 26.79C13.8533 27.5295 14.8876 27.9516 15.9688 27.9751L19.6287 28.0659C18.7068 27.4126 17.9568 26.5458 17.4427 25.5396C16.9286 24.5334 16.6657 23.4178 16.6764 22.2879L15.665 10.7438C15.637 10.4118 15.5427 10.0887 15.3877 9.79368C15.2326 9.49869 15.02 9.2378 14.7624 9.02642C14.5048 8.81505 14.2074 8.65749 13.8878 8.56307C13.5682 8.46864 13.2329 8.43928 12.9018 8.47671C12.2258 8.54977 11.6051 8.88411 11.1721 9.40839C10.7391 9.93266 10.5281 10.6054 10.5841 11.283Z" fill="#581959"/>
<path d="M26.4836 20.3853C26.2845 18.6185 25.466 16.9794 24.1733 15.7587C23.8271 15.4242 23.4506 15.1225 23.0487 14.8575L19.6034 14.7682C19.2923 14.7531 18.9817 14.8049 18.6923 14.92C18.4029 15.035 18.1415 15.2108 17.9258 15.4353C17.71 15.6598 17.5448 15.928 17.4413 16.2217C17.3378 16.5154 17.2984 16.8279 17.3258 17.1381C17.3797 17.8008 17.674 18.421 18.1533 18.8818C18.6326 19.3427 19.2638 19.6126 19.9281 19.6405L26.3704 19.8074L26.4836 20.3853Z" fill="#FB6E3A"/>
<path style="mix-blend-mode:multiply" opacity="0.57" d="M26.4836 20.3853C26.2845 18.6185 25.466 16.9794 24.1733 15.7587C23.8271 15.4242 23.4506 15.1225 23.0487 14.8575L19.6034 14.7682C19.2923 14.7531 18.9817 14.8049 18.6923 14.92C18.4029 15.035 18.1415 15.2108 17.9258 15.4353C17.71 15.6598 17.5448 15.928 17.4413 16.2217C17.3378 16.5154 17.2984 16.8279 17.3258 17.1381C17.3797 17.8008 17.674 18.421 18.1533 18.8818C18.6326 19.3427 19.2638 19.6126 19.9281 19.6405L26.3704 19.8074L26.4836 20.3853Z" fill="url(#paint1_linear_1597_64881)"/>
<path d="M33.4593 30.9217L31.0611 18.7952C30.8424 17.7462 30.2809 16.7999 29.4651 16.1052C28.6493 15.4105 27.6256 15.0069 26.5552 14.958L23.0518 14.8672C23.4537 15.1322 23.8302 15.4339 24.1764 15.7684C25.4674 16.9898 26.2843 18.6288 26.4822 20.3949L28.6659 31.4356C28.9325 32.7762 30.218 33.7399 31.5408 33.5999C32.8635 33.4599 33.723 32.2608 33.4593 30.9217Z" fill="#FB6E3A"/>
</g>
<path d="M53.9596 27.201H63.0378V30.1328H50.7963V9.99613H53.9596V27.201ZM67.816 30.1328V9.99613H70.9792V30.1328H67.816ZM95.9062 15.6797L93.103 16.9655C92.0486 14.3938 89.9912 12.645 86.8022 12.645C84.822 12.645 83.1761 13.3394 81.8388 14.7538C80.5272 16.1683 79.8586 17.9171 79.8586 20.0259C79.8586 22.1347 80.5015 23.9092 81.8131 25.3237C83.1247 26.7381 84.7706 27.4582 86.7765 27.4582C90.1712 27.4582 92.28 25.5808 92.7687 22.932H85.5421V20.0516H96.1891V21.1575C96.1891 23.7806 95.3404 25.9666 93.6173 27.7411C91.92 29.4899 89.6569 30.3643 86.8022 30.3643C83.7933 30.3643 81.3244 29.387 79.4214 27.4582C77.5183 25.5294 76.5667 23.0605 76.5667 20.103C76.5667 17.1456 77.5697 14.6767 79.6014 12.6965C81.633 10.7162 84.0248 9.71324 86.828 9.71324C89.1168 9.71324 91.0713 10.3047 92.6658 11.462C94.2603 12.6193 95.3404 14.008 95.9062 15.6797ZM101.629 30.1328V9.99613H104.793V18.4314H114.745V9.99613H117.908V30.1328H114.745V21.4403H104.793V30.1328H101.629ZM122.795 12.9279V9.99613H138.74V12.9279H132.336V30.1328H129.173V12.9279H122.795ZM155.717 21.6718H146.793V30.1328H143.63V9.99613H156.463V12.9279H146.793V18.7657H155.717V21.6718ZM160.242 20.103C160.242 17.197 161.245 14.7281 163.276 12.7222C165.308 10.7162 167.751 9.71324 170.606 9.71324C173.486 9.71324 175.929 10.6905 177.909 12.6707C179.915 14.651 180.918 17.0941 180.918 20.0259C180.918 22.9577 179.915 25.4265 177.884 27.4068C175.852 29.387 173.409 30.3643 170.528 30.3643C167.648 30.3643 165.205 29.387 163.225 27.4582C161.245 25.5037 160.242 23.0605 160.242 20.103ZM170.58 27.4325C172.534 27.4325 174.18 26.7124 175.543 25.2722C176.906 23.8321 177.601 22.0833 177.601 20.0259C177.601 17.9685 176.906 16.2197 175.543 14.8053C174.18 13.3651 172.534 12.645 170.58 12.645C168.6 12.645 166.954 13.3651 165.591 14.8053C164.228 16.2197 163.559 17.9685 163.559 20.0259C163.559 22.0833 164.228 23.8321 165.591 25.2722C166.954 26.7124 168.6 27.4325 170.58 27.4325ZM186.535 30.1328V9.99613H194.096C196.436 9.99613 198.185 10.5876 199.291 11.7706C200.396 12.9536 200.962 14.4195 200.962 16.194C200.962 18.9972 199.393 21.0546 196.693 21.9547L201.476 30.1328H197.902L193.53 22.4948H189.698V30.1328H186.535ZM189.698 12.9279V19.6401H193.761C196.564 19.6401 197.747 18.1228 197.747 16.2712C197.747 14.7281 197.053 12.9279 193.761 12.9279H189.698ZM204.385 12.9279V9.99613H220.33V12.9279H213.926V30.1328H210.763V12.9279H204.385ZM225.22 30.1328V9.99613H228.383V18.4314H238.336V9.99613H241.499V30.1328H238.336V21.4403H228.383V30.1328H225.22Z" fill="white"/>
<defs>
<linearGradient id="paint0_linear_1597_64881" x1="23.3707" y1="23.842" x2="16.1321" y2="27.6706" gradientUnits="userSpaceOnUse">
<stop stop-color="#581959"/>
<stop offset="0.608249" stop-color="#581959"/>
<stop offset="1" stop-color="#5B5858" stop-opacity="0.75"/>
</linearGradient>
<linearGradient id="paint1_linear_1597_64881" x1="19.9522" y1="19.0261" x2="26.5751" y2="15.7245" gradientUnits="userSpaceOnUse">
<stop stop-color="white" stop-opacity="0"/>
<stop offset="0.34" stop-color="#D3D3D3" stop-opacity="0.2"/>
<stop offset="0.82" stop-color="#5B5858" stop-opacity="0.75"/>
<stop offset="1" stop-color="#231F20"/>
</linearGradient>
<clipPath id="clip0_1597_64881">
<rect width="41.8747" height="41.8747" fill="white" transform="translate(0.793945 0.09375)"/>
</clipPath>
</defs>
</svg>
