<svg width="24" height="24" viewBox="0 0 24 24" fill="none" xmlns="http://www.w3.org/2000/svg">
<path fill-rule="evenodd" clip-rule="evenodd" d="M5.99961 10.7984V8.39844C5.99961 5.08473 8.6859 2.39844 11.9996 2.39844C15.3133 2.39844 17.9996 5.08473 17.9996 8.39844V10.7984C19.3251 10.7984 20.3996 11.873 20.3996 13.1984V19.1984C20.3996 20.5239 19.3251 21.5984 17.9996 21.5984H5.99961C4.67413 21.5984 3.59961 20.5239 3.59961 19.1984V13.1984C3.59961 11.873 4.67413 10.7984 5.99961 10.7984ZM15.5996 8.39844V10.7984H8.39961V8.39844C8.39961 6.41021 10.0114 4.79844 11.9996 4.79844C13.9878 4.79844 15.5996 6.41021 15.5996 8.39844Z" fill="#581959"/>
</svg>
